<svg width="34" height="34" viewBox="0 0 34 34" fill="none" xmlns="http://www.w3.org/2000/svg">
<path d="M0 10C0 4.47715 4.47715 0 10 0H24C29.5228 0 34 4.47715 34 10V24C34 29.5228 29.5228 34 24 34H10C4.47715 34 0 29.5228 0 24V10Z" fill="#E8F5EE"/>
<path d="M17 22.3333H23" stroke="#2A9D5C" stroke-width="1.33333" stroke-linecap="round" stroke-linejoin="round"/>
<path d="M20 11.3333C20.2652 11.0681 20.6249 10.9191 21 10.9191C21.1857 10.9191 21.3696 10.9557 21.5412 11.0268C21.7128 11.0978 21.8687 11.202 22 11.3333C22.1313 11.4647 22.2355 11.6206 22.3066 11.7921C22.3776 11.9637 22.4142 12.1476 22.4142 12.3333C22.4142 12.5191 22.3776 12.703 22.3066 12.8745C22.2355 13.0461 22.1313 13.202 22 13.3333L13.6667 21.6667L11 22.3333L11.6667 19.6667L20 11.3333Z" stroke="#2A9D5C" stroke-width="1.33333" stroke-linecap="round" stroke-linejoin="round"/>
</svg>
