<svg width="34" height="34" viewBox="0 0 34 34" fill="none" xmlns="http://www.w3.org/2000/svg">
<path d="M0 10C0 4.47715 4.47715 0 10 0H24C29.5228 0 34 4.47715 34 10V24C34 29.5228 29.5228 34 24 34H10C4.47715 34 0 29.5228 0 24V10Z" fill="#E8F5EE"/>
<path d="M17.0002 23.6666C20.6821 23.6666 23.6668 20.6819 23.6668 17C23.6668 13.3181 20.6821 10.3333 17.0002 10.3333C13.3183 10.3333 10.3335 13.3181 10.3335 17C10.3335 20.6819 13.3183 23.6666 17.0002 23.6666Z" stroke="#2A9D5C" stroke-width="1.33333" stroke-linecap="round" stroke-linejoin="round"/>
<path d="M17 13V17L19.6667 18.3333" stroke="#2A9D5C" stroke-width="1.33333" stroke-linecap="round" stroke-linejoin="round"/>
</svg>
