<svg width="34" height="34" viewBox="0 0 34 34" fill="none" xmlns="http://www.w3.org/2000/svg">
<path d="M0 10C0 4.47715 4.47715 0 10 0H24C29.5228 0 34 4.47715 34 10V24C34 29.5228 29.5228 34 24 34H10C4.47715 34 0 29.5228 0 24V10Z" fill="#E8F5EE"/>
<path d="M21.6667 16.3333H12.3333C11.597 16.3333 11 16.9303 11 17.6666V22.3333C11 23.0697 11.597 23.6666 12.3333 23.6666H21.6667C22.403 23.6666 23 23.0697 23 22.3333V17.6666C23 16.9303 22.403 16.3333 21.6667 16.3333Z" stroke="#2A9D5C" stroke-width="1.33333" stroke-linecap="round" stroke-linejoin="round"/>
<path d="M13.6665 16.3333V13.6666C13.6665 12.7826 14.0177 11.9347 14.6428 11.3096C15.2679 10.6845 16.1158 10.3333 16.9998 10.3333C17.8839 10.3333 18.7317 10.6845 19.3569 11.3096C19.982 11.9347 20.3332 12.7826 20.3332 13.6666V16.3333" stroke="#2A9D5C" stroke-width="1.33333" stroke-linecap="round" stroke-linejoin="round"/>
</svg>
