<svg width="34" height="34" viewBox="0 0 34 34" fill="none" xmlns="http://www.w3.org/2000/svg">
<path d="M0 10C0 4.47715 4.47715 0 10 0H24C29.5228 0 34 4.47715 34 10V24C34 29.5228 29.5228 34 24 34H10C4.47715 34 0 29.5228 0 24V10Z" fill="#E8F5EE"/>
<path d="M17.0002 23.6667C20.6821 23.6667 23.6668 20.6819 23.6668 17C23.6668 13.3181 20.6821 10.3334 17.0002 10.3334C13.3183 10.3334 10.3335 13.3181 10.3335 17C10.3335 20.6819 13.3183 23.6667 17.0002 23.6667Z" stroke="#2A9D5C" stroke-width="1.33333" stroke-linecap="round" stroke-linejoin="round"/>
<path d="M15.0601 15C15.2168 14.5545 15.5262 14.1788 15.9334 13.9394C16.3406 13.7001 16.8193 13.6126 17.2848 13.6925C17.7504 13.7723 18.1726 14.0144 18.4768 14.3757C18.781 14.737 18.9474 15.1944 18.9467 15.6667C18.9467 17 16.9467 17.6667 16.9467 17.6667" stroke="#2A9D5C" stroke-width="1.33333" stroke-linecap="round" stroke-linejoin="round"/>
<path d="M17 20.3334H17.0067" stroke="#2A9D5C" stroke-width="1.33333" stroke-linecap="round" stroke-linejoin="round"/>
</svg>
