<svg width="34" height="34" viewBox="0 0 34 34" fill="none" xmlns="http://www.w3.org/2000/svg">
<path d="M0 10C0 4.47715 4.47715 0 10 0H24C29.5228 0 34 4.47715 34 10V24C34 29.5228 29.5228 34 24 34H10C4.47715 34 0 29.5228 0 24V10Z" fill="#E8F5EE"/>
<path d="M21 14.3333C21 13.2724 20.5786 12.255 19.8284 11.5049C19.0783 10.7547 18.0609 10.3333 17 10.3333C15.9391 10.3333 14.9217 10.7547 14.1716 11.5049C13.4214 12.255 13 13.2724 13 14.3333C13 19 11 20.3333 11 20.3333H23C23 20.3333 21 19 21 14.3333Z" stroke="#2A9D5C" stroke-width="1.33333" stroke-linecap="round" stroke-linejoin="round"/>
<path d="M18.1533 23C18.0361 23.2021 17.8679 23.3698 17.6655 23.4864C17.4631 23.6029 17.2336 23.6643 17 23.6643C16.7664 23.6643 16.5369 23.6029 16.3345 23.4864C16.1321 23.3698 15.9639 23.2021 15.8467 23" stroke="#2A9D5C" stroke-width="1.33333" stroke-linecap="round" stroke-linejoin="round"/>
</svg>
