<svg width="34" height="34" viewBox="0 0 34 34" fill="none" xmlns="http://www.w3.org/2000/svg">
<path d="M0 10C0 4.47715 4.47715 0 10 0H24C29.5228 0 34 4.47715 34 10V24C34 29.5228 29.5228 34 24 34H10C4.47715 34 0 29.5228 0 24V10Z" fill="#E8F5EE"/>
<path d="M17.0002 23.6667C20.6821 23.6667 23.6668 20.6819 23.6668 17C23.6668 13.3181 20.6821 10.3334 17.0002 10.3334C13.3183 10.3334 10.3335 13.3181 10.3335 17C10.3335 20.6819 13.3183 23.6667 17.0002 23.6667Z" stroke="#2A9D5C" stroke-width="1.33333" stroke-linecap="round" stroke-linejoin="round"/>
<path d="M17 14.3334V17" stroke="#2A9D5C" stroke-width="1.33333" stroke-linecap="round" stroke-linejoin="round"/>
<path d="M17 19.6666H17.0067" stroke="#2A9D5C" stroke-width="1.33333" stroke-linecap="round" stroke-linejoin="round"/>
</svg>
