<svg width="34" height="34" viewBox="0 0 34 34" fill="none" xmlns="http://www.w3.org/2000/svg">
<path d="M0 10C0 4.47715 4.47715 0 10 0H24C29.5228 0 34 4.47715 34 10V24C34 29.5228 29.5228 34 24 34H10C4.47715 34 0 29.5228 0 24V10Z" fill="#E8F5EE"/>
<path d="M22.3332 23V21.6667C22.3332 20.9594 22.0522 20.2811 21.5521 19.781C21.052 19.281 20.3737 19 19.6665 19H14.3332C13.6259 19 12.9476 19.281 12.4476 19.781C11.9475 20.2811 11.6665 20.9594 11.6665 21.6667V23" stroke="#2A9D5C" stroke-width="1.33333" stroke-linecap="round" stroke-linejoin="round"/>
<path d="M17.0002 16.3333C18.4729 16.3333 19.6668 15.1394 19.6668 13.6667C19.6668 12.1939 18.4729 11 17.0002 11C15.5274 11 14.3335 12.1939 14.3335 13.6667C14.3335 15.1394 15.5274 16.3333 17.0002 16.3333Z" stroke="#2A9D5C" stroke-width="1.33333" stroke-linecap="round" stroke-linejoin="round"/>
</svg>
