<svg width="34" height="34" viewBox="0 0 34 34" fill="none" xmlns="http://www.w3.org/2000/svg">
<path d="M0 10C0 4.47715 4.47715 0 10 0H24C29.5228 0 34 4.47715 34 10V24C34 29.5228 29.5228 34 24 34H10C4.47715 34 0 29.5228 0 24V10Z" fill="#E8F5EE"/>
<g clip-path="url(#clip0_19_821)">
<path d="M17 19C18.1046 19 19 18.1046 19 17C19 15.8954 18.1046 15 17 15C15.8954 15 15 15.8954 15 17C15 18.1046 15.8954 19 17 19Z" stroke="#2A9D5C" stroke-width="1.33333" stroke-linecap="round" stroke-linejoin="round"/>
<path d="M21.9332 19C21.8444 19.2011 21.818 19.4241 21.8572 19.6404C21.8964 19.8567 21.9995 20.0562 22.1532 20.2134L22.1932 20.2534C22.3171 20.3772 22.4155 20.5242 22.4826 20.6861C22.5497 20.848 22.5842 21.0215 22.5842 21.1967C22.5842 21.3719 22.5497 21.5454 22.4826 21.7073C22.4155 21.8691 22.3171 22.0162 22.1932 22.14C22.0693 22.264 21.9223 22.3623 21.7604 22.4294C21.5986 22.4965 21.4251 22.5311 21.2498 22.5311C21.0746 22.5311 20.9011 22.4965 20.7393 22.4294C20.5774 22.3623 20.4303 22.264 20.3065 22.14L20.2665 22.1C20.1094 21.9463 19.9098 21.8432 19.6936 21.804C19.4773 21.7648 19.2542 21.7913 19.0532 21.88C18.856 21.9645 18.6878 22.1049 18.5694 22.2837C18.4509 22.4626 18.3874 22.6722 18.3865 22.8867V23C18.3865 23.3536 18.246 23.6928 17.996 23.9428C17.7459 24.1929 17.4068 24.3334 17.0532 24.3334C16.6995 24.3334 16.3604 24.1929 16.1104 23.9428C15.8603 23.6928 15.7198 23.3536 15.7198 23V22.94C15.7147 22.7194 15.6432 22.5054 15.5148 22.3258C15.3864 22.1463 15.207 22.0095 14.9998 21.9334C14.7988 21.8446 14.5757 21.8181 14.3594 21.8574C14.1432 21.8966 13.9436 21.9997 13.7865 22.1534L13.7465 22.1934C13.6227 22.3173 13.4756 22.4157 13.3138 22.4828C13.1519 22.5499 12.9784 22.5844 12.8032 22.5844C12.6279 22.5844 12.4544 22.5499 12.2926 22.4828C12.1307 22.4157 11.9837 22.3173 11.8598 22.1934C11.7359 22.0695 11.6375 21.9225 11.5704 21.7606C11.5033 21.5987 11.4688 21.4252 11.4688 21.25C11.4688 21.0748 11.5033 20.9013 11.5704 20.7394C11.6375 20.5776 11.7359 20.4305 11.8598 20.3067L11.8998 20.2667C12.0647 20.1053 12.1747 19.8962 12.2141 19.6688C12.2536 19.4415 12.2206 19.2076 12.1198 19C12.0353 18.8028 11.895 18.6347 11.7161 18.5162C11.5373 18.3978 11.3277 18.3342 11.1132 18.3334H10.9998C10.6462 18.3334 10.3071 18.1929 10.057 17.9428C9.80698 17.6928 9.6665 17.3536 9.6665 17C9.6665 16.6464 9.80698 16.3073 10.057 16.0572C10.3071 15.8072 10.6462 15.6667 10.9998 15.6667H11.0598C11.2744 15.6658 11.484 15.6023 11.6628 15.4838C11.8417 15.3654 11.982 15.1972 12.0665 15C12.1552 14.7989 12.1817 14.5759 12.1425 14.3596C12.1033 14.1434 12.0002 13.9438 11.8465 13.7867L11.8065 13.7467C11.6825 13.6229 11.5842 13.4758 11.5171 13.3139C11.45 13.1521 11.4155 12.9786 11.4155 12.8034C11.4155 12.6281 11.45 12.4546 11.5171 12.2928C11.5842 12.1309 11.6825 11.9839 11.8065 11.86C11.9303 11.7361 12.0774 11.6377 12.2393 11.5706C12.4011 11.5035 12.5746 11.469 12.7498 11.469C12.9251 11.469 13.0986 11.5035 13.2604 11.5706C13.4223 11.6377 13.5693 11.7361 13.6932 11.86L13.7332 11.9C13.8946 12.0649 14.1037 12.1749 14.331 12.2143C14.5583 12.2538 14.7923 12.2208 14.9998 12.12C15.197 12.0355 15.3652 11.8952 15.4836 11.7163C15.6021 11.5375 15.6656 11.3279 15.6665 11.1134V11C15.6665 10.6464 15.807 10.3073 16.057 10.0572C16.3071 9.80716 16.6462 9.66669 16.9998 9.66669C17.3535 9.66669 17.6926 9.80716 17.9426 10.0572C18.1927 10.3073 18.3332 10.6464 18.3332 11V11.06C18.334 11.2745 18.3976 11.4841 18.516 11.663C18.6345 11.8419 18.8027 11.9822 18.9998 12.0667C19.2009 12.1554 19.424 12.1819 19.6402 12.1427C19.8565 12.1035 20.0561 12.0004 20.2132 11.8467L20.2532 11.8067C20.377 11.6827 20.5241 11.5844 20.6859 11.5173C20.8478 11.4502 21.0213 11.4156 21.1965 11.4156C21.3717 11.4156 21.5452 11.4502 21.7071 11.5173C21.869 11.5844 22.016 11.6827 22.1398 11.8067C22.2638 11.9305 22.3622 12.0776 22.4293 12.2394C22.4963 12.4013 22.5309 12.5748 22.5309 12.75C22.5309 12.9252 22.4963 13.0987 22.4293 13.2606C22.3622 13.4225 22.2638 13.5695 22.1398 13.6934L22.0998 13.7334C21.9437 13.9009 21.8436 14.1129 21.8138 14.34C21.7839 14.5671 21.8256 14.7978 21.9332 15C22.0177 15.1972 22.158 15.3654 22.3369 15.4838C22.5157 15.6023 22.7253 15.6658 22.9398 15.6667H22.9998C23.3535 15.6667 23.6926 15.8072 23.9426 16.0572C24.1927 16.3073 24.3332 16.6464 24.3332 17C24.3332 17.3536 24.1927 17.6928 23.9426 17.9428C23.6926 18.1929 23.3535 18.3334 22.9998 18.3334H22.9398C22.7253 18.3342 22.5157 18.3978 22.3369 18.5162C22.158 18.6347 22.0177 18.8028 21.9332 19Z" stroke="#2A9D5C" stroke-width="1.33333" stroke-linecap="round" stroke-linejoin="round"/>
</g>
<defs>
<clipPath id="clip0_19_821">
<rect width="16" height="16" fill="white" transform="translate(9 9)"/>
</clipPath>
</defs>
</svg>
