<svg width="72" height="72" viewBox="0 0 72 72" fill="none" xmlns="http://www.w3.org/2000/svg">
<g clip-path="url(#clip0_19_837)">
<path d="M0 36C0 16.1178 16.1178 0 36 0C55.8823 0 72 16.1178 72 36C72 55.8823 55.8823 72 36 72C16.1178 72 0 55.8823 0 36Z" fill="#E8F5EE"/>
<g clip-path="url(#clip1_19_837)">
<path d="M74 38C74 18.1177 57.8823 2 38 2C18.1177 2 2 18.1177 2 38C2 57.8823 18.1177 74 38 74C57.8823 74 74 57.8823 74 38Z" fill="#C8E6C9"/>
<path opacity="0.9" d="M54 20C54 21.3132 53.7413 22.6136 53.2388 23.8268C52.7362 25.0401 51.9997 26.1425 51.0711 27.0711C50.1425 27.9997 49.0401 28.7362 47.8268 29.2388C46.6136 29.7413 45.3132 30 44 30C45.39 30.428 46.8703 30.469 48.2819 30.1185C49.6934 29.7681 50.9827 29.0395 52.0111 28.0111C53.0395 26.9827 53.7681 25.6934 54.1185 24.2819C54.469 22.8703 54.428 21.39 54 20Z" fill="#F9C74F"/>
<path opacity="0.7" d="M57 17.5C57.8284 17.5 58.5 16.8284 58.5 16C58.5 15.1716 57.8284 14.5 57 14.5C56.1716 14.5 55.5 15.1716 55.5 16C55.5 16.8284 56.1716 17.5 57 17.5Z" fill="#F9C74F"/>
<path d="M38 82C57.8823 82 74 77.5228 74 72C74 66.4772 57.8823 62 38 62C18.1177 62 2 66.4772 2 72C2 77.5228 18.1177 82 38 82Z" fill="#2E7D32"/>
<path d="M24 52C33.3333 38.6667 42.6667 38.6667 52 52H24Z" fill="#388E3C"/>
<path d="M50 52H26C24.8954 52 24 52.8954 24 54V72C24 73.1046 24.8954 74 26 74H50C51.1046 74 52 73.1046 52 72V54C52 52.8954 51.1046 52 50 52Z" fill="#388E3C"/>
<path d="M39 31C39 30.4477 38.5523 30 38 30C37.4477 30 37 30.4477 37 31V34C37 34.5523 37.4477 35 38 35C38.5523 35 39 34.5523 39 34V31Z" fill="#2E7D32"/>
<path d="M36.4998 30C36.4854 29.5458 36.6261 29.1003 36.8988 28.7368C37.1714 28.3732 37.5597 28.1134 37.9998 28C37.7526 27.9857 37.5058 28.0328 37.2813 28.137C37.0568 28.2413 36.8616 28.3995 36.7131 28.5975C36.5646 28.7955 36.4674 29.0272 36.4301 29.2719C36.3929 29.5167 36.4168 29.7668 36.4998 30Z" fill="#2E7D32"/>
<path opacity="0.4" d="M30 64V56C32 53.3333 34 53.3333 36 56V64H30Z" fill="#C8E6C9"/>
<path opacity="0.4" d="M40 64V56C42 53.3333 44 53.3333 46 56V64H40Z" fill="#C8E6C9"/>
<path d="M21 40H18C16.8954 40 16 40.8954 16 42V72C16 73.1046 16.8954 74 18 74H21C22.1046 74 23 73.1046 23 72V42C23 40.8954 22.1046 40 21 40Z" fill="#43A047"/>
<path d="M16 40C18.3333 33.3333 20.6667 33.3333 23 40H16Z" fill="#388E3C"/>
<path d="M20.5 29C20.5 28.4477 20.0523 28 19.5 28C18.9477 28 18.5 28.4477 18.5 29V32C18.5 32.5523 18.9477 33 19.5 33C20.0523 33 20.5 32.5523 20.5 32V29Z" fill="#2E7D32"/>
<path d="M58 40H55C53.8954 40 53 40.8954 53 42V72C53 73.1046 53.8954 74 55 74H58C59.1046 74 60 73.1046 60 72V42C60 40.8954 59.1046 40 58 40Z" fill="#43A047"/>
<path d="M53 40C55.3333 33.3333 57.6667 33.3333 60 40H53Z" fill="#388E3C"/>
<path d="M57.5 29C57.5 28.4477 57.0523 28 56.5 28C55.9477 28 55.5 28.4477 55.5 29V32C55.5 32.5523 55.9477 33 56.5 33C57.0523 33 57.5 32.5523 57.5 32V29Z" fill="#2E7D32"/>
</g>
</g>
<path d="M36 1C55.33 1 71 16.67 71 36C71 55.33 55.33 71 36 71C16.67 71 1 55.33 1 36C1 16.67 16.67 1 36 1Z" stroke="#A8D5B5" stroke-width="2"/>
<path d="M61 51C66.5228 51 71 55.4772 71 61C71 66.5228 66.5228 71 61 71C55.4772 71 51 66.5228 51 61C51 55.4772 55.4772 51 61 51Z" fill="#2A9D5C"/>
<path d="M61 51C66.5228 51 71 55.4772 71 61C71 66.5228 66.5228 71 61 71C55.4772 71 51 66.5228 51 61C51 55.4772 55.4772 51 61 51Z" stroke="white" stroke-width="2"/>
<g clip-path="url(#clip2_19_837)">
<path d="M66.0418 64.2083C66.0418 64.4514 65.9453 64.6846 65.7733 64.8565C65.6014 65.0284 65.3683 65.125 65.1252 65.125H56.8752C56.632 65.125 56.3989 65.0284 56.227 64.8565C56.0551 64.6846 55.9585 64.4514 55.9585 64.2083V59.1667C55.9585 58.9236 56.0551 58.6904 56.227 58.5185C56.3989 58.3466 56.632 58.25 56.8752 58.25H58.7085L59.6252 56.875H62.3752L63.2918 58.25H65.1252C65.3683 58.25 65.6014 58.3466 65.7733 58.5185C65.9453 58.6904 66.0418 58.9236 66.0418 59.1667V64.2083Z" stroke="white" stroke-width="1.00833" stroke-linecap="round" stroke-linejoin="round"/>
<path d="M60.9998 63.2917C62.0124 63.2917 62.8332 62.4709 62.8332 61.4583C62.8332 60.4458 62.0124 59.625 60.9998 59.625C59.9873 59.625 59.1665 60.4458 59.1665 61.4583C59.1665 62.4709 59.9873 63.2917 60.9998 63.2917Z" stroke="white" stroke-width="1.00833" stroke-linecap="round" stroke-linejoin="round"/>
</g>
<defs>
<clipPath id="clip0_19_837">
<path d="M0 36C0 16.1178 16.1178 0 36 0C55.8823 0 72 16.1178 72 36C72 55.8823 55.8823 72 36 72C16.1178 72 0 55.8823 0 36Z" fill="white"/>
</clipPath>
<clipPath id="clip1_19_837">
<rect width="72" height="72" fill="white" transform="translate(2 2)"/>
</clipPath>
<clipPath id="clip2_19_837">
<rect width="11" height="11" fill="white" transform="translate(55.5 55.5)"/>
</clipPath>
</defs>
</svg>
