<svg width="36" height="36" viewBox="0 0 36 36" fill="none" xmlns="http://www.w3.org/2000/svg">
<path d="M0 18C0 8.05888 8.05888 0 18 0C27.9411 0 36 8.05888 36 18C36 27.9411 27.9411 36 18 36C8.05888 36 0 27.9411 0 18Z" fill="#FFF4E0"/>
<g clip-path="url(#clip0_19_959)">
<path d="M18.0001 25.0833C21.5205 25.0833 24.3751 22.5475 24.3751 19.4167C24.3751 17.2917 22.9584 15.5208 21.5417 14.4583C21.8959 15.875 20.8334 17.2917 19.4167 17.2917C18.3542 17.2917 17.6459 16.5833 17.6459 15.5208C17.6459 14.4583 16.5834 13.0417 15.1667 11.625C15.1667 13.75 13.0417 15.1667 13.0417 18C13.0417 21.1308 15.2588 23.6667 18.0001 23.6667V25.0833Z" stroke="#C8852A" stroke-width="1.41667" stroke-linecap="round" stroke-linejoin="round"/>
</g>
<defs>
<clipPath id="clip0_19_959">
<rect width="17" height="17" fill="white" transform="translate(9.5 9.5)"/>
</clipPath>
</defs>
</svg>
