<svg width="36" height="36" viewBox="0 0 36 36" fill="none" xmlns="http://www.w3.org/2000/svg">
<path d="M0 10C0 4.47715 4.47715 0 10 0H26C31.5228 0 36 4.47715 36 10V26C36 31.5228 31.5228 36 26 36H10C4.47715 36 0 31.5228 0 26V10Z" fill="white"/>
<path d="M22.5 12H13.5C12.2574 12 11.25 13.0074 11.25 14.25V23.25C11.25 24.4926 12.2574 25.5 13.5 25.5H22.5C23.7426 25.5 24.75 24.4926 24.75 23.25V14.25C24.75 13.0074 23.7426 12 22.5 12Z" stroke="#2A9D5C" stroke-width="1.5" stroke-linecap="round" stroke-linejoin="round"/>
<path d="M21 10.5V13.5" stroke="#2A9D5C" stroke-width="1.5" stroke-linecap="round" stroke-linejoin="round"/>
<path d="M15 10.5V13.5" stroke="#2A9D5C" stroke-width="1.5" stroke-linecap="round" stroke-linejoin="round"/>
<path d="M11.25 16.5H24.75" stroke="#2A9D5C" stroke-width="1.5" stroke-linecap="round" stroke-linejoin="round"/>
<path d="M15.75 21L17.25 22.5L20.25 19.5" stroke="#2A9D5C" stroke-width="1.5" stroke-linecap="round" stroke-linejoin="round"/>
</svg>
