<svg width="32" height="32" viewBox="0 0 32 32" fill="none" xmlns="http://www.w3.org/2000/svg">
<path d="M0 16C0 7.16344 7.16344 0 16 0C24.8366 0 32 7.16344 32 16C32 24.8366 24.8366 32 16 32C7.16344 32 0 24.8366 0 16Z" fill="#E8F5EE"/>
<g clip-path="url(#clip0_20_1544)">
<path d="M19.75 11H12.25C11.2145 11 10.375 11.8395 10.375 12.875V20.375C10.375 21.4105 11.2145 22.25 12.25 22.25H19.75C20.7855 22.25 21.625 21.4105 21.625 20.375V12.875C21.625 11.8395 20.7855 11 19.75 11Z" stroke="#2A9D5C" stroke-width="1.25" stroke-linecap="round" stroke-linejoin="round"/>
<path d="M18.5 9.75V12.25" stroke="#2A9D5C" stroke-width="1.25" stroke-linecap="round" stroke-linejoin="round"/>
<path d="M13.5 9.75V12.25" stroke="#2A9D5C" stroke-width="1.25" stroke-linecap="round" stroke-linejoin="round"/>
<path d="M10.375 14.75H21.625" stroke="#2A9D5C" stroke-width="1.25" stroke-linecap="round" stroke-linejoin="round"/>
<path d="M14.125 18.5L15.375 19.75L17.875 17.25" stroke="#2A9D5C" stroke-width="1.25" stroke-linecap="round" stroke-linejoin="round"/>
</g>
<defs>
<clipPath id="clip0_20_1544">
<rect width="15" height="15" fill="white" transform="translate(8.5 8.5)"/>
</clipPath>
</defs>
</svg>
