<svg width="32" height="32" viewBox="0 0 32 32" fill="none" xmlns="http://www.w3.org/2000/svg">
<path d="M0 16C0 7.16344 7.16344 0 16 0C24.8366 0 32 7.16344 32 16C32 24.8366 24.8366 32 16 32C7.16344 32 0 24.8366 0 16Z" fill="#E8F5EE"/>
<g clip-path="url(#clip0_20_1561)">
<path d="M16 22.25C19.4518 22.25 22.25 19.4518 22.25 16C22.25 12.5482 19.4518 9.75 16 9.75C12.5482 9.75 9.75 12.5482 9.75 16C9.75 19.4518 12.5482 22.25 16 22.25Z" stroke="#2A9D5C" stroke-width="1.25" stroke-linecap="round"/>
<path d="M16 12.25V16L18.5 17.25" stroke="#2A9D5C" stroke-width="1.25" stroke-linecap="round"/>
</g>
<defs>
<clipPath id="clip0_20_1561">
<rect width="15" height="15" fill="white" transform="translate(8.5 8.5)"/>
</clipPath>
</defs>
</svg>
