<svg width="46" height="46" viewBox="0 0 46 46" fill="none" xmlns="http://www.w3.org/2000/svg">
<path d="M0 23C0 10.2975 10.2975 0 23 0C35.7025 0 46 10.2975 46 23C46 35.7025 35.7025 46 23 46C10.2975 46 0 35.7025 0 23Z" fill="#E8F5EE"/>
<path d="M22.9999 32.1667C27.5558 32.1667 31.2499 28.885 31.2499 24.8333C31.2499 22.0833 29.4166 19.7917 27.5833 18.4167C28.0416 20.25 26.6666 22.0833 24.8333 22.0833C23.4583 22.0833 22.5416 21.1667 22.5416 19.7917C22.5416 18.4167 21.1666 16.5833 19.3333 14.75C19.3333 17.5 16.5833 19.3333 16.5833 23C16.5833 27.0517 19.4524 30.3333 22.9999 30.3333V32.1667Z" stroke="#2A9D5C" stroke-width="1.83333" stroke-linecap="round" stroke-linejoin="round"/>
</svg>
