<svg width="34" height="34" viewBox="0 0 34 34" fill="none" xmlns="http://www.w3.org/2000/svg">
<path d="M0 17C0 7.61116 7.61116 0 17 0C26.3888 0 34 7.61116 34 17C34 26.3888 26.3888 34 17 34C7.61116 34 0 26.3888 0 17Z" fill="#E8F5EE"/>
<g clip-path="url(#clip0_24_2551)">
<path d="M20.75 12H13.25C12.2145 12 11.375 12.8395 11.375 13.875V21.375C11.375 22.4105 12.2145 23.25 13.25 23.25H20.75C21.7855 23.25 22.625 22.4105 22.625 21.375V13.875C22.625 12.8395 21.7855 12 20.75 12Z" stroke="#2A9D5C" stroke-width="1.25" stroke-linecap="round" stroke-linejoin="round"/>
<path d="M19.5 10.75V13.25" stroke="#2A9D5C" stroke-width="1.25" stroke-linecap="round" stroke-linejoin="round"/>
<path d="M14.5 10.75V13.25" stroke="#2A9D5C" stroke-width="1.25" stroke-linecap="round" stroke-linejoin="round"/>
<path d="M11.375 15.75H22.625" stroke="#2A9D5C" stroke-width="1.25" stroke-linecap="round" stroke-linejoin="round"/>
</g>
<defs>
<clipPath id="clip0_24_2551">
<rect width="15" height="15" fill="white" transform="translate(9.5 9.5)"/>
</clipPath>
</defs>
</svg>
