<svg width="30" height="30" viewBox="0 0 30 30" fill="none" xmlns="http://www.w3.org/2000/svg">
<path d="M0 9C0 4.02944 4.02944 0 9 0H21C25.9706 0 30 4.02944 30 9V21C30 25.9706 25.9706 30 21 30H9C4.02944 30 0 25.9706 0 21V9Z" fill="#E8F5EE"/>
<g clip-path="url(#clip0_63_26)">
<path d="M18.125 18.75C18.125 17.9212 17.7958 17.1263 17.2097 16.5403C16.6237 15.9542 15.8288 15.625 15 15.625C14.1712 15.625 13.3763 15.9542 12.7903 16.5403C12.2042 17.1263 11.875 17.9212 11.875 18.75" stroke="#2A9D5C" stroke-width="1.25" stroke-linecap="round"/>
<path d="M15 8.75V13.125" stroke="#2A9D5C" stroke-width="1.25" stroke-linecap="round"/>
<path d="M10.1375 13.8875L11.025 14.775" stroke="#2A9D5C" stroke-width="1.25" stroke-linecap="round"/>
<path d="M8.125 18.75H9.375" stroke="#2A9D5C" stroke-width="1.25" stroke-linecap="round"/>
<path d="M20.625 18.75H21.875" stroke="#2A9D5C" stroke-width="1.25" stroke-linecap="round"/>
<path d="M18.9751 14.775L19.8626 13.8875" stroke="#2A9D5C" stroke-width="1.25" stroke-linecap="round"/>
<path d="M9.375 21.25H20.625" stroke="#2A9D5C" stroke-width="1.25" stroke-linecap="round"/>
</g>
<defs>
<clipPath id="clip0_63_26">
<rect width="15" height="15" fill="white" transform="translate(7.5 7.5)"/>
</clipPath>
</defs>
</svg>
