<svg width="36" height="36" viewBox="0 0 36 36" fill="none" xmlns="http://www.w3.org/2000/svg">
<path d="M0 18C0 8.05888 8.05888 0 18 0C27.9411 0 36 8.05888 36 18C36 27.9411 27.9411 36 18 36C8.05888 36 0 27.9411 0 18Z" fill="#E8F5EE"/>
<g clip-path="url(#clip0_19_950)">
<path d="M22.25 12.3333H13.75C12.5764 12.3333 11.625 13.2847 11.625 14.4583V22.9583C11.625 24.1319 12.5764 25.0833 13.75 25.0833H22.25C23.4236 25.0833 24.375 24.1319 24.375 22.9583V14.4583C24.375 13.2847 23.4236 12.3333 22.25 12.3333Z" stroke="#2A9D5C" stroke-width="1.41667" stroke-linecap="round" stroke-linejoin="round"/>
<path d="M20.8333 10.9167V13.75" stroke="#2A9D5C" stroke-width="1.41667" stroke-linecap="round" stroke-linejoin="round"/>
<path d="M15.1667 10.9167V13.75" stroke="#2A9D5C" stroke-width="1.41667" stroke-linecap="round" stroke-linejoin="round"/>
<path d="M11.625 16.5833H24.375" stroke="#2A9D5C" stroke-width="1.41667" stroke-linecap="round" stroke-linejoin="round"/>
</g>
<defs>
<clipPath id="clip0_19_950">
<rect width="17" height="17" fill="white" transform="translate(9.5 9.5)"/>
</clipPath>
</defs>
</svg>
